<svg width="55" height="48" viewBox="0 0 55 48" fill="none" xmlns="http://www.w3.org/2000/svg">
<path d="M50.8932 16.8479C52.3371 19.367 53.6503 21.6651 55 24.0185C53.6655 26.3504 52.3249 28.6884 50.9175 31.1461H39.7187C41.6459 34.5274 43.4547 37.6969 45.309 40.9493C43.9866 43.2597 42.6521 45.5947 41.2933 47.9757H33.0918C31.2983 44.8583 29.4531 41.6489 27.5015 38.2553C25.5712 41.609 23.7473 44.7785 21.9052 47.9787H13.7188C12.4178 45.7143 11.0803 43.3824 9.688 40.9616C11.5028 37.7736 13.3297 34.5642 15.254 31.1829H4.11292C2.74194 28.7989 1.40137 26.4701 0 24.0339C1.31322 21.7296 2.64467 19.3977 4.043 16.9523H15.3117C13.3571 13.5189 11.5301 10.3125 9.69104 7.08159C11.0468 4.71288 12.3874 2.37792 13.7432 0.0153414H21.8717C23.6774 3.14806 25.553 6.39737 27.5046 9.78168C29.4288 6.43112 31.277 3.21863 33.1283 0H41.2386C42.567 2.30428 43.9319 4.67913 45.315 7.07853C43.482 10.291 41.6672 13.4698 39.74 16.8449H50.8932V16.8479ZM49.9204 18.781H31.5445C30.7542 20.1647 29.9638 21.5485 29.0701 23.1164H47.3517C48.364 24.8377 49.3489 26.5161 50.4341 28.3663C51.34 26.7861 52.1152 25.433 52.9268 24.0216C51.9115 22.2542 50.9084 20.5023 49.9204 18.781ZM16.7952 7.11228C17.7679 5.3787 18.7224 3.67273 19.759 1.8287H14.7828C13.8009 3.53773 12.7947 5.28972 11.7581 7.09387C14.8497 12.4879 17.923 17.8513 20.8898 23.0275H25.8965C22.808 17.6273 19.8107 12.3836 16.7952 7.11228ZM27.4985 25.8472C24.337 31.3578 21.3093 36.6384 18.2421 41.9864H12.3539C13.2446 43.5266 14.0228 44.8736 14.7767 46.1746H20.8777C23.9267 40.845 26.9756 35.5154 30.0094 30.2103C29.1643 28.7437 28.3831 27.3844 27.4985 25.8472ZM18.8531 7.09694C21.7106 12.086 24.5529 17.0443 27.5046 22.199C28.4287 20.579 29.2221 19.186 30.0064 17.8114C27.1215 12.7763 24.3006 7.84867 21.361 2.71543C20.4643 4.28332 19.6648 5.67632 18.8501 7.09694H18.8531ZM17.3059 40.0227C20.1664 35.0214 22.9813 30.0968 25.8813 25.0249H20.8594C18.0263 29.9894 15.2053 34.9263 12.2962 40.0227H17.3028H17.3059ZM46.4337 25.0648H29.1461C30.0124 26.5775 30.7876 27.9336 31.5263 29.2285H48.7987C47.9384 27.7127 47.1724 26.3627 46.4337 25.0648ZM2.63251 23.0551H18.8227C17.923 21.4995 17.1235 20.1126 16.3392 18.7564H5.09479C4.30139 20.1433 3.50495 21.5271 2.62947 23.0551H2.63251ZM31.0612 16.0072C33.8335 11.1471 36.4539 6.55078 39.1624 1.80108H34.1679C32.2954 5.06573 30.4107 8.36107 28.5381 11.6257C29.3801 13.0893 30.1583 14.4424 31.0581 16.0072H31.0612ZM37.6303 16.9032C39.5272 13.5864 41.3876 10.337 43.2479 7.08773C42.4059 5.62416 41.6155 4.25264 40.7279 2.71236C37.9647 7.55718 35.3443 12.1473 32.6297 16.9032H37.6303ZM39.1229 46.1378C36.4022 41.3881 33.7758 36.804 31.049 32.0421C30.1249 33.656 29.3467 35.0152 28.5411 36.4205C30.4228 39.7005 32.2893 42.959 34.1101 46.1378H39.1229ZM37.7063 31.2719H32.6936C35.4082 36.0155 38.0224 40.578 40.7431 45.3308C41.6611 43.7169 42.4576 42.3239 43.2479 40.9401C41.3511 37.6294 39.5089 34.4108 37.7093 31.2719H37.7063ZM2.65075 25.0004C3.50495 26.5038 4.29531 27.8907 5.07959 29.2714H16.3666C17.1265 27.9214 17.9078 26.5345 18.7711 25.0004H2.65075Z" fill="url(#paint0_linear_154_2899)"/>
<defs>
<linearGradient id="paint0_linear_154_2899" x1="41.5426" y1="0.585108" x2="4.09575" y2="30.4255" gradientUnits="userSpaceOnUse">
<stop stop-color="#FF7E37"/>
<stop offset="1" stop-color="#7B96F4"/>
</linearGradient>
</defs>
</svg>
